HIERARCHY
ROOT Hips
{
	OFFSET	0	0	0
	CHANNELS 6  Xposition Yposition Zposition Xrotation Yrotation Zrotation
	JOINT Spine
	{
		OFFSET	0	7.36801	1.47921
		CHANNELS 3  Xrotation Yrotation Zrotation
		JOINT Spine1
		{
			OFFSET	0	12.6146	-2.2526
			CHANNELS 3  Xrotation Yrotation Zrotation
			JOINT Spine2
			{
				OFFSET	0	9.56229	1.02493
				CHANNELS 3  Xrotation Yrotation Zrotation
				JOINT Spine3
				{
					OFFSET	0	11.4432	3.40143
					CHANNELS 3  Xrotation Yrotation Zrotation
					JOINT Spine4
					{
						OFFSET	0	16.9396	-1.7345
						CHANNELS 3  Xrotation Yrotation Zrotation
						JOINT Neck
						{
							OFFSET	0	8.08684	-5.66529
							CHANNELS 3  Xrotation Yrotation Zrotation
							JOINT Head
							{
								OFFSET	0	9.70872	-2.90586
								CHANNELS 3  Xrotation Yrotation Zrotation
								End Site
								{
									OFFSET	0	20.2509	-0.979882
								}
							}
						}
					}
					JOINT LeftShoulder
					{
						OFFSET	-4.86562	20.5888	-9.70871
						CHANNELS 3  Xrotation Yrotation Zrotation
						JOINT LeftArm
						{
							OFFSET	-10.6038	-2.90585	3.72808
							CHANNELS 3  Xrotation Yrotation Zrotation
							JOINT LeftForeArm
							{
								OFFSET	-30.8337	-1.4073	2.20088
								CHANNELS 3  Xrotation Yrotation Zrotation
								JOINT LeftHand
								{
									OFFSET	-25.1332	-1.73684	1.79398
									CHANNELS 3  Xrotation Yrotation Zrotation
									End Site
									{
										OFFSET	-9.17235	-0.633862	0.65467
									}
								}
							}
						}
					}
					JOINT RightShoulder
					{
						OFFSET	4.86562	20.5888	-9.70871
						CHANNELS 3  Xrotation Yrotation Zrotation
						JOINT RightArm
						{
							OFFSET	10.6038	-2.90585	3.72808
							CHANNELS 3  Xrotation Yrotation Zrotation
							JOINT RightForeArm
							{
								OFFSET	30.8337	-1.4073	2.20088
								CHANNELS 3  Xrotation Yrotation Zrotation
								JOINT RightHand
								{
									OFFSET	25.1332	-1.73684	1.79398
									CHANNELS 3  Xrotation Yrotation Zrotation
									End Site
									{
										OFFSET	9.17235	-0.633862	0.65467
									}
								}
							}
						}
					}
				}
			}
		}
	}
	JOINT LeftUpLeg
	{
		OFFSET	-10.0134	-3.684	-0.739604
		CHANNELS 3  Xrotation Yrotation Zrotation
		JOINT LeftLeg
		{
			OFFSET	-2.30148	-45.0967	-0.70496
			CHANNELS 3  Xrotation Yrotation Zrotation
			JOINT LeftFoot
			{
				OFFSET	-2.24997	-41.4741	3.56677
				CHANNELS 3  Xrotation Yrotation Zrotation
				JOINT LeftToeBase
				{
					OFFSET	0	-5.07523	-13.4798
					CHANNELS 3  Xrotation Yrotation Zrotation
					End Site
					{
						OFFSET	0	-2.03009	-8.12037
					}
				}
			}
		}
	}
	JOINT RightUpLeg
	{
		OFFSET	10.0134	-3.684	-0.739604
		CHANNELS 3  Xrotation Yrotation Zrotation
		JOINT RightLeg
		{
			OFFSET	2.30148	-45.0967	-0.70496
			CHANNELS 3  Xrotation Yrotation Zrotation
			JOINT RightFoot
			{
				OFFSET	2.24997	-41.4741	3.56677
				CHANNELS 3  Xrotation Yrotation Zrotation
				JOINT RightToeBase
				{
					OFFSET	0	-5.07523	-13.4798
					CHANNELS 3  Xrotation Yrotation Zrotation
					End Site
					{
						OFFSET	0	-2.03009	-8.12037
					}
				}
			}
		}
	}
}
MOTION
Frames: 13
Frame Time: 0.020408
 55.7114 99.098 -305.251 36.2289 -21.8597 -11.4288 0.000179209 0.00801135 -1.28146 173.983 179.984 177.864 173.299 179.952 177.864 173.934 179.992 178.719 2.78775 -0.0207754 -0.426646 13.4241 -8.00664 -5.78128 4.112 -3.27902 -2.20634 178.831 176.778 177.814 5.09968 -2.25636 43.4467 179.904 -139.145 178.2 -0 -2.2137 -0.673356 179.711 -157.908 -179.592 155.346 -172.094 153.035 2.82299 34.5628 0.0870029 -0 8.59747 -21.9065 164.571 -151.46 -136.726 166.604 -169.877 -179.897 15.6637 -0.11031 1.25639 0.203372 0 0 122.927 160.887 -153.966 162.751 168.918 179.932 38.6178 -0.0138334 -7.73745 179.237 180 -180
 55.7133 99.6762 -305.357 36.28 -22.7703 -12.2183 0.000170023 0.00892374 -1.09152 173.95 179.982 178.181 173.29 179.946 178.181 173.982 179.991 178.908 2.6133 -0.0165894 -0.36346 12.9599 -6.88797 -5.65517 3.96815 -1.99856 -2.08065 178.025 176.932 176.299 4.85014 -1.8125 43.1645 179.836 -138.986 178.058 -0 -2.22951 -0.685088 179.032 -158.685 -178.613 154.222 -172.981 151.735 3.67777 37.6653 -0.354005 -0 9.24995 -22.931 163.699 -151.868 -136.4 167.351 -170.012 -179.957 11.9457 0.00821023 1.37485 0.205616 0 0 122.503 160.611 -152.631 162.262 168.28 179.956 39.2806 0.0442671 -7.7865 179.24 180 -180
 55.8865 99.8883 -305.254 36.1515 -23.5979 -13.2753 0.000166863 0.0116353 -0.821631 173.914 179.977 178.631 173.272 179.93 178.631 174.013 179.988 179.178 2.47476 -0.0118259 -0.273622 12.6185 -5.64196 -5.40316 3.85817 -0.65191 -1.91085 177.592 177.151 175.475 4.47421 -1.38237 43.2139 179.76 -139.066 178.072 -0 -2.21028 -0.67341 178.01 -159.212 -177.116 152.926 -174.519 150.506 4.74711 40.7619 -1.4038 -0 9.58808 -23.5264 163.421 -152.715 -135.792 168.752 -170.023 -179.852 7.57474 -0.0425006 1.51799 0.201134 0 0 122.043 160.691 -151.811 161.866 167.692 179.888 39.9829 -0.197409 -7.78046 179.243 180 -180
 55.7962 99.8135 -304.713 35.5567 -23.8129 -14.3664 8.46518e-05 0.00902526 -0.537386 173.948 179.982 179.104 173.305 179.946 179.104 174.034 179.991 179.463 2.48937 -0.00778031 -0.17896 12.6286 -4.64102 -5.40492 3.8614 0.798318 -1.83413 177.268 177.379 174.851 4.23833 -1.08556 43.2743 179.696 -139.01 178.065 -0 -2.2139 -0.664237 177.325 -159.667 -176.086 151.814 -176.437 149.076 5.9942 44.1076 -2.44767 -0 9.88686 -24.3191 163.538 -153.715 -135.476 169.974 -169.989 179.99 0.598519 -0.020013 1.49427 0.193512 0 0 120.24 161.213 -150.619 161.463 166.83 -179.992 39.4923 -0.0233366 -7.88202 179.249 180 -180
 55.4791 100.289 -304.736 35.274 -24.5824 -15.9237 180 -179.995 179.717 173.969 -179.989 179.529 173.324 -179.968 179.529 174.044 -179.995 179.717 2.50629 -0.0041206 -0.0941402 12.6679 -3.72158 -5.36942 3.87227 2.083 -1.75404 177.179 177.515 174.675 4.04042 -0.612768 43.588 179.635 -138.79 177.91 -0 -2.2536 -0.710837 176.505 -159.805 -174.864 151.052 -177.898 148.022 7.17737 46.1234 -3.35813 -0 9.97975 -24.9644 162.898 -153.762 -135.727 171.071 -170.005 -179.55 177.089 -179.994 -178.559 0.201986 0 0 118.861 161.224 -149.282 162.406 166.141 -179.85 39.5709 0.213839 -7.89817 179.253 180 -180
 56.0943 100.149 -305.15 35.6246 -24.5006 -16.1017 180 -179.978 179.881 173.991 -179.956 179.801 173.344 -179.867 179.801 174.056 -179.978 179.881 2.51797 -0.00174715 -0.0397304 12.6733 -3.2001 -5.58114 3.87957 3.13051 -1.77191 176.958 177.765 174.242 3.62227 -0.250414 43.6093 179.578 -138.763 178.016 -0 -2.24563 -0.673398 175.416 -161.211 -173.067 151.294 -179.712 148.368 8.24148 47.6416 -4.34317 -0 9.72966 -25.3059 162.183 -153.537 -135.19 172.057 -169.952 -179.344 175.837 -179.978 -178.497 0.215333 0 0 117.895 161.178 -148.278 163.469 165.878 179.851 38.1617 0.208161 -7.80419 179.253 180 -180
 55.7973 100.232 -304.965 34.7828 -26.0882 -17.3329 180 179.999 -179.993 174.037 179.998 -179.988 173.357 179.994 -179.988 173.984 179.999 -179.993 2.77361 0.000120653 0.00249044 13.3183 -3.09707 -6.08529 4.08994 4.12374 -1.92092 176.903 177.753 174.138 3.10673 0.340072 43.7711 179.514 -138.669 178.033 -0 -2.26958 -0.673649 174.738 -162.24 -171.877 151.674 178.728 148.351 8.99227 48.3749 -5.10806 -0 8.8416 -25.3195 162 -153.416 -134.828 173.319 -169.947 -179.754 178.032 -179.97 -178.622 0.242027 0 0 116.105 162.044 -148.074 165.763 165.863 -179.984 38.2003 0.144511 -7.65237 179.251 180 -180
 55.032 100.52 -305.091 34.4613 -27.1026 -19.0331 1.75389e-05 -0.00414651 0.242348 174.088 -179.992 -179.596 173.375 -179.975 -179.596 173.92 -179.996 -179.758 3.02017 0.00425625 0.0806706 13.9173 -3.3231 -6.6427 4.29048 4.73218 -2.11346 176.875 177.915 174.076 2.74683 0.813638 43.8125 179.443 -138.607 177.964 -0 -2.27427 -0.669077 173.945 -162.837 -170.529 151.956 177.467 148.578 9.50996 48.729 -5.65329 -0 7.91901 -25.2918 162.061 -153.47 -134.505 174.763 -170.058 179.966 0.438999 0.0730295 1.22056 0.264074 0 0 114.908 162.393 -147.171 167.491 165.757 -179.669 39.1642 0.0619339 -7.52697 179.248 180 -180
 55.268 100.289 -305.11 34.5408 -26.7044 -19.0477 0.000117292 -0.0193336 0.347595 174.13 -179.961 -179.421 173.395 -179.884 -179.421 173.877 -179.981 -179.652 3.198 0.00646373 0.115685 14.299 -3.81014 -7.3679 4.43394 5.18704 -2.37 176.993 178.082 174.291 2.41991 1.24616 44.0181 179.386 -138.523 177.956 -0 -2.28534 -0.659838 173.401 -162.766 -169.67 151.895 175.946 147.894 9.99671 49.0193 -5.93156 -0 6.89052 -25.1756 162.47 -153.676 -133.802 175.968 -170.048 -179.746 2.48957 -0.00171081 1.09307 0.284126 0 0 113.593 162.62 -145.598 169.383 165.542 -179.881 39.481 0.221405 -7.41686 179.247 180 -180
 55.5897 100.11 -304.47 33.5312 -27.7408 -18.2529 3.56054e-07 -0.000127532 0.159963 174.197 -180 -179.733 173.407 -179.999 -179.733 173.761 -180 -179.84 3.59662 0.00334491 0.0532159 15.2661 -4.38536 -8.10313 4.76125 5.7322 -2.66441 177.051 178.144 174.398 2.06679 1.83742 44.0012 179.326 -138.413 177.765 -0 -2.31778 -0.715694 173.06 -162.856 -169.104 152.069 174.06 146.825 10.1989 48.8208 -5.67364 -0 5.485 -25.05 163.268 -154.082 -132.731 177.137 -169.925 -179.622 4.7216 -0.0508533 0.981826 0.3023 0 0 111.008 164.159 -145.213 172.777 165.713 -179.598 39.3178 0.0851137 -7.27319 179.252 180 -180
 56.8788 100.554 -305.229 34.2226 -27.2943 -18.0593 7.51342e-05 -0.0111164 0.387249 174.202 -179.978 -179.355 173.359 -179.933 -179.355 173.603 -179.989 -179.613 3.97413 0.00894625 0.128773 16.1863 -5.19059 -9.01188 5.08891 6.27694 -3.03532 177.041 178.65 174.352 1.64411 2.29777 43.8516 179.252 -138.51 177.748 -0 -2.2857 -0.683739 172.322 -162.729 -167.932 152.063 172.372 146.046 10.3328 48.4853 -5.87482 -0 4.03425 -24.6506 162.498 -152.953 -133.006 176.899 -169.996 -179.875 3.40902 0.00497991 0.855136 0.318579 0 0 110.995 163.866 -144.401 177.095 165.749 -179.68 40.4133 -0.0210624 -7.14056 179.256 180 -180
 53.9259 92.4096 -287.579 3.90415 3.18786 -2.96319 1.641e-05 0.00161096 -0.583622 178.311 179.997 179.027 178.329 179.99 179.027 178.927 179.998 179.416 179.314 179.998 179.805 179.649 -179.887 179.771 179.895 179.955 179.937 0.233915 -0.172995 0.45173 0.0556005 -0.292206 0.214025 0.00994459 -0.0277773 -0.00165171 -0 0.0326602 -0.0246791 0.25308 -0.115603 -0.487468 0.0388398 0.202605 -0.168349 0.00503724 0.171902 0.0552717 -0 0.0386592 0.0517313 165.507 158.882 -172.411 162.381 179.896 -179.836 68.2007 -25.8271 -4.74159 179.998 180 -180 1.91453 0.108045 5.24534 110.22 179.601 179.713 169.024 177.884 -174.412 0.00316146 0 0
 58.0377 100.069 -288.904 8.19732 4.70592 6.24144 179.999 -179.958 179.271 178.256 -179.915 178.786 178.249 -179.746 178.786 178.827 -179.958 179.271 179.444 179.998 179.757 0.0665902 0.388993 0.735135 0.0208443 -0.10949 0.207515 0.28035 -0.175523 0.541419 0.390593 -0.0982441 -0.752426 179.96 -174.051 177.534 -0 -0.107204 -0.311426 179.471 -179.782 -178.982 179.964 -179.733 -179.902 179.99 174.283 -178.087 -0 -0.133808 0.148306 166.441 158.165 -172.258 166.018 179.847 -179.699 43.4562 -0.0873758 -4.92169 0.00629625 0 0 3.46067 -0.737313 4.44573 109.961 179.975 179.473 174.729 179.986 -174.337 0.0118708 0 0
